<svg width="63" height="63" viewBox="0 0 63 63" fill="none" xmlns="http://www.w3.org/2000/svg">
<path fill-rule="evenodd" clip-rule="evenodd" d="M31.5 63C48.897 63 63 48.8966 63 31.5C63 14.1034 48.897 0 31.5 0C14.103 0 0 14.1034 0 31.5C0 48.8966 14.103 63 31.5 63Z" fill="#006583"/>
<path d="M51.8824 50.647V48.4334C51.8824 47.8133 51.5123 47.2562 50.9529 47.0363C44.3903 44.4483 37.105 41.2341 36.4927 39.2317V37.1305C37.8541 35.7086 38.9279 33.7272 39.5634 31.4061C41.0902 30.3116 41.4698 28.056 40.206 26.4699V21.7671C40.206 16.9112 37.557 13.5882 31.5008 13.5882C25.6008 13.5882 22.7923 16.9112 22.7923 21.7671V26.4711C21.5313 28.056 21.9101 30.3092 23.4349 31.4049C24.0704 33.7272 25.1449 35.7086 26.5071 37.1305V39.2317C25.8966 41.2316 18.6096 44.4459 12.0471 47.0363C11.4878 47.2574 11.1177 47.8133 11.1177 48.4334V50.647" fill="#006583"/>
<path d="M51.8824 50.647V48.4334C51.8824 47.8133 51.5123 47.2562 50.9529 47.0363C44.3903 44.4483 37.1051 41.2341 36.4927 39.2317V37.1305C37.8541 35.7086 38.9279 33.7272 39.5634 31.4061C41.0902 30.3116 41.4698 28.056 40.206 26.4699V21.7671C40.206 16.9112 37.557 13.5882 31.5008 13.5882C25.6008 13.5882 22.7923 16.9112 22.7923 21.7671V26.4711C21.5313 28.056 21.9101 30.3092 23.4349 31.4049C24.0704 33.7272 25.1449 35.7086 26.5071 37.1305V39.2317C25.8966 41.2316 18.6096 44.4459 12.0471 47.0363C11.4878 47.2574 11.1177 47.8133 11.1177 48.4334V50.647" stroke="white" stroke-width="2"/>
</svg>
