<svg width="94" height="83" viewBox="0 0 94 83" fill="none" xmlns="http://www.w3.org/2000/svg">
<path d="M88.9688 12.2812H27.0938C25.9749 12.2812 24.9018 12.7257 24.1106 13.5169C23.3195 14.3081 22.875 15.3811 22.875 16.5V24.9375C22.875 26.0564 23.3195 27.1294 24.1106 27.9206C24.9018 28.7118 25.9749 29.1562 27.0938 29.1562H29.9062V81.1875C29.9063 81.4565 29.9834 81.7198 30.1286 81.9462C30.2737 82.1727 30.4807 82.3527 30.7251 82.4651C30.9695 82.5774 31.241 82.6173 31.5073 82.5801C31.7737 82.5428 32.0238 82.4299 32.228 82.2548L41.0873 74.6611L48.6038 82.1775C48.8675 82.4411 49.2251 82.5892 49.598 82.5892C49.9709 82.5892 50.3285 82.4411 50.5922 82.1775L58.0312 74.737L65.4745 82.1803C65.7382 82.4439 66.0959 82.592 66.4688 82.592C66.8416 82.592 67.1993 82.4439 67.463 82.1803L74.9808 74.6639L83.8402 82.2577C84.0446 82.4312 84.2945 82.5426 84.5602 82.5788C84.8259 82.615 85.0964 82.5745 85.3398 82.462C85.5833 82.3495 85.7895 82.1698 85.9341 81.9439C86.0788 81.7181 86.1558 81.4557 86.1562 81.1875V29.1562H88.9688C90.0876 29.1562 91.1607 28.7118 91.9519 27.9206C92.743 27.1294 93.1875 26.0564 93.1875 24.9375V16.5C93.1875 15.3811 92.743 14.3081 91.9519 13.5169C91.1607 12.7257 90.0876 12.2812 88.9688 12.2812ZM77.7188 64.3125H38.3438C37.9708 64.3125 37.6131 64.1643 37.3494 63.9006C37.0857 63.6369 36.9375 63.2792 36.9375 62.9062C36.9375 62.5333 37.0857 62.1756 37.3494 61.9119C37.6131 61.6482 37.9708 61.5 38.3438 61.5H77.7188C78.0917 61.5 78.4494 61.6482 78.7131 61.9119C78.9768 62.1756 79.125 62.5333 79.125 62.9062C79.125 63.2792 78.9768 63.6369 78.7131 63.9006C78.4494 64.1643 78.0917 64.3125 77.7188 64.3125ZM77.7188 54.4688H38.3438C37.9708 54.4688 37.6131 54.3206 37.3494 54.0569C37.0857 53.7931 36.9375 53.4355 36.9375 53.0625C36.9375 52.6895 37.0857 52.3319 37.3494 52.0681C37.6131 51.8044 37.9708 51.6562 38.3438 51.6562H77.7188C78.0917 51.6562 78.4494 51.8044 78.7131 52.0681C78.9768 52.3319 79.125 52.6895 79.125 53.0625C79.125 53.4355 78.9768 53.7931 78.7131 54.0569C78.4494 54.3206 78.0917 54.4688 77.7188 54.4688ZM77.7188 44.625H38.3438C37.9708 44.625 37.6131 44.4768 37.3494 44.2131C37.0857 43.9494 36.9375 43.5917 36.9375 43.2188C36.9375 42.8458 37.0857 42.4881 37.3494 42.2244C37.6131 41.9607 37.9708 41.8125 38.3438 41.8125H77.7188C78.0917 41.8125 78.4494 41.9607 78.7131 42.2244C78.9768 42.4881 79.125 42.8458 79.125 43.2188C79.125 43.5917 78.9768 43.9494 78.7131 44.2131C78.4494 44.4768 78.0917 44.625 77.7188 44.625ZM77.7188 34.7812H38.3438C37.9708 34.7812 37.6131 34.6331 37.3494 34.3694C37.0857 34.1056 36.9375 33.748 36.9375 33.375C36.9375 33.002 37.0857 32.6444 37.3494 32.3806C37.6131 32.1169 37.9708 31.9688 38.3438 31.9688H77.7188C78.0917 31.9688 78.4494 32.1169 78.7131 32.3806C78.9768 32.6444 79.125 33.002 79.125 33.375C79.125 33.748 78.9768 34.1056 78.7131 34.3694C78.4494 34.6331 78.0917 34.7812 77.7188 34.7812ZM90.375 24.9375C90.375 25.3105 90.2268 25.6681 89.9631 25.9319C89.6994 26.1956 89.3417 26.3438 88.9688 26.3438H86.1562V20.7188C86.1562 20.3458 86.0081 19.9881 85.7444 19.7244C85.4806 19.4607 85.123 19.3125 84.75 19.3125H31.3125C30.9395 19.3125 30.5819 19.4607 30.3181 19.7244C30.0544 19.9881 29.9062 20.3458 29.9062 20.7188V26.3438H27.0938C26.7208 26.3438 26.3631 26.1956 26.0994 25.9319C25.8357 25.6681 25.6875 25.3105 25.6875 24.9375V16.5C25.6875 16.127 25.8357 15.7694 26.0994 15.5056C26.3631 15.2419 26.7208 15.0938 27.0938 15.0938H88.9688C89.3417 15.0938 89.6994 15.2419 89.9631 15.5056C90.2268 15.7694 90.375 16.127 90.375 16.5V24.9375Z" fill="#006583" fill-opacity="0.5"/>
<path d="M54.8438 0.40625H9.84375C7.23394 0.409228 4.73187 1.44729 2.88646 3.29271C1.04104 5.13812 0.00297754 7.64019 0 10.25V65.0938C0 66.2126 0.444474 67.2857 1.23564 68.0769C2.02681 68.868 3.09987 69.3125 4.21875 69.3125H43.5938C44.7126 69.3125 45.7857 68.868 46.5769 68.0769C47.368 67.2857 47.8125 66.2126 47.8125 65.0938V46.8125H59.0625C60.5543 46.8125 61.9851 46.2199 63.04 45.165C64.0949 44.1101 64.6875 42.6793 64.6875 41.1875V10.25C64.6845 7.64019 63.6465 5.13812 61.801 3.29271C59.9556 1.44729 57.4536 0.409228 54.8438 0.40625ZM45 10.25V65.0938C45 65.4667 44.8518 65.8244 44.5881 66.0881C44.3244 66.3518 43.9667 66.5 43.5938 66.5H4.21875C3.84579 66.5 3.4881 66.3518 3.22438 66.0881C2.96066 65.8244 2.8125 65.4667 2.8125 65.0938V10.25C2.81473 8.38588 3.55624 6.59875 4.87437 5.28062C6.1925 3.96249 7.97963 3.22098 9.84375 3.21875H47.9531C47.0167 4.13444 46.273 5.22829 45.7658 6.43585C45.2586 7.64341 44.9982 8.94026 45 10.25ZM47.8125 44V27.125H52.0312C52.4042 27.125 52.7619 27.2732 53.0256 27.5369C53.2893 27.8006 53.4375 28.1583 53.4375 28.5312V41.1875C53.4433 42.1779 53.7132 43.1487 54.2194 44H47.8125ZM61.875 41.1875C61.875 41.9334 61.5787 42.6488 61.0512 43.1762C60.5238 43.7037 59.8084 44 59.0625 44C58.3166 44 57.6012 43.7037 57.0738 43.1762C56.5463 42.6488 56.25 41.9334 56.25 41.1875V28.5312C56.25 27.4124 55.8055 26.3393 55.0144 25.5481C54.2232 24.757 53.1501 24.3125 52.0312 24.3125H47.8125V10.25C47.8125 8.3852 48.5533 6.59677 49.8719 5.27816C51.1905 3.95954 52.9789 3.21875 54.8438 3.21875C56.7086 3.21875 58.497 3.95954 59.8156 5.27816C61.1342 6.59677 61.875 8.3852 61.875 10.25V41.1875Z" fill="white"/>
<path d="M15.4532 42.5727C15.1298 42.4588 14.7979 42.3364 14.4689 42.2127V36.6973C14.9197 36.8258 15.342 37.0386 15.7134 37.3245C15.9901 37.5678 16.3512 37.6928 16.7191 37.6726C17.087 37.6524 17.4323 37.4886 17.6807 37.2165C17.9291 36.9443 18.0607 36.5855 18.0473 36.2173C18.0339 35.8491 17.8765 35.5009 17.609 35.2475C16.7033 34.5093 15.6212 34.0194 14.4689 33.8258V32.75C14.4689 32.377 14.3207 32.0194 14.057 31.7556C13.7933 31.4919 13.4356 31.3438 13.0626 31.3438C12.6897 31.3438 12.332 31.4919 12.0682 31.7556C11.8045 32.0194 11.6564 32.377 11.6564 32.75V33.9355C11.5059 33.972 11.3681 33.9805 11.2134 34.0269C10.2997 34.3146 9.48288 34.8485 8.85256 35.5698C8.22224 36.2912 7.80275 37.1722 7.64012 38.1163C7.45296 38.9394 7.49535 39.7981 7.76266 40.5988C8.02997 41.3995 8.51195 42.1114 9.15605 42.657C9.92814 43.2372 10.7677 43.7217 11.6564 44.0998V51.2309C10.7679 51.1394 9.9211 50.8079 9.20668 50.2719C9.05215 50.1676 8.87843 50.095 8.69561 50.0585C8.5128 50.0219 8.32454 50.0221 8.14178 50.059C7.95903 50.0958 7.78544 50.1687 7.6311 50.2733C7.47676 50.3779 7.34475 50.5121 7.24276 50.6681C7.14077 50.8242 7.07083 50.999 7.03701 51.1823C7.00318 51.3657 7.00616 51.5539 7.04575 51.7361C7.08534 51.9183 7.16077 52.0908 7.26763 52.2435C7.3745 52.3963 7.51068 52.5263 7.66824 52.6259C8.83376 53.4748 10.2173 53.9734 11.6564 54.0631V55.25C11.6564 55.623 11.8045 55.9806 12.0682 56.2444C12.332 56.5081 12.6897 56.6562 13.0626 56.6562C13.4356 56.6562 13.7933 56.5081 14.057 56.2444C14.3207 55.9806 14.4689 55.623 14.4689 55.25V53.9267C15.6702 53.6398 16.7613 53.0075 17.6077 52.108C18.454 51.2084 19.0186 50.0808 19.2318 48.8642C19.489 47.5341 19.2454 46.1559 18.5479 44.9945C17.8504 43.8331 16.7482 42.9706 15.4532 42.5727ZM11.6564 40.94C11.3911 40.7917 11.136 40.6259 10.8928 40.4436C10.6591 40.2123 10.491 39.9232 10.4055 39.6058C10.3201 39.2883 10.3203 38.9539 10.4062 38.6366C10.4739 38.2731 10.6212 37.9291 10.8376 37.6293C11.054 37.3295 11.3341 37.0814 11.6578 36.9027L11.6564 40.94ZM16.4587 48.3931C16.3634 48.9549 16.1323 49.485 15.7855 49.9371C15.4387 50.3893 14.9867 50.7499 14.4689 50.9877V45.208L14.5153 45.2248C15.1778 45.4116 15.7454 45.8415 16.1047 46.4286C16.4639 47.0157 16.5884 47.7168 16.4531 48.3917L16.4587 48.3931Z" fill="white"/>
<path d="M39.375 24.3125H8.4375C8.06454 24.3125 7.70685 24.4607 7.44313 24.7244C7.17941 24.9881 7.03125 25.3458 7.03125 25.7188C7.03125 26.0917 7.17941 26.4494 7.44313 26.7131C7.70685 26.9768 8.06454 27.125 8.4375 27.125H39.375C39.748 27.125 40.1056 26.9768 40.3694 26.7131C40.6331 26.4494 40.7812 26.0917 40.7812 25.7188C40.7812 25.3458 40.6331 24.9881 40.3694 24.7244C40.1056 24.4607 39.748 24.3125 39.375 24.3125Z" fill="white"/>
<path d="M39.375 34.1562H25.3125C24.9395 34.1562 24.5819 34.3044 24.3181 34.5681C24.0544 34.8319 23.9062 35.1895 23.9062 35.5625C23.9062 35.9355 24.0544 36.2931 24.3181 36.5569C24.5819 36.8206 24.9395 36.9688 25.3125 36.9688H39.375C39.748 36.9688 40.1056 36.8206 40.3694 36.5569C40.6331 36.2931 40.7812 35.9355 40.7812 35.5625C40.7812 35.1895 40.6331 34.8319 40.3694 34.5681C40.1056 34.3044 39.748 34.1562 39.375 34.1562Z" fill="white"/>
<path d="M39.375 44H25.3125C24.9395 44 24.5819 44.1482 24.3181 44.4119C24.0544 44.6756 23.9062 45.0333 23.9062 45.4062C23.9062 45.7792 24.0544 46.1369 24.3181 46.4006C24.5819 46.6643 24.9395 46.8125 25.3125 46.8125H39.375C39.748 46.8125 40.1056 46.6643 40.3694 46.4006C40.6331 46.1369 40.7812 45.7792 40.7812 45.4062C40.7812 45.0333 40.6331 44.6756 40.3694 44.4119C40.1056 44.1482 39.748 44 39.375 44Z" fill="white"/>
<path d="M39.375 53.8438H25.3125C24.9395 53.8438 24.5819 53.9919 24.3181 54.2556C24.0544 54.5194 23.9062 54.877 23.9062 55.25C23.9062 55.623 24.0544 55.9806 24.3181 56.2444C24.5819 56.5081 24.9395 56.6562 25.3125 56.6562H39.375C39.748 56.6562 40.1056 56.5081 40.3694 56.2444C40.6331 55.9806 40.7812 55.623 40.7812 55.25C40.7812 54.877 40.6331 54.5194 40.3694 54.2556C40.1056 53.9919 39.748 53.8438 39.375 53.8438Z" fill="white"/>
<path d="M39.375 14.4688H8.4375C8.06454 14.4688 7.70685 14.6169 7.44313 14.8806C7.17941 15.1444 7.03125 15.502 7.03125 15.875C7.03125 16.248 7.17941 16.6056 7.44313 16.8694C7.70685 17.1331 8.06454 17.2812 8.4375 17.2812H39.375C39.748 17.2812 40.1056 17.1331 40.3694 16.8694C40.6331 16.6056 40.7812 16.248 40.7812 15.875C40.7812 15.502 40.6331 15.1444 40.3694 14.8806C40.1056 14.6169 39.748 14.4688 39.375 14.4688Z" fill="white"/>
</svg>
