<svg width="97" height="56" viewBox="0 0 97 56" fill="none" xmlns="http://www.w3.org/2000/svg">
<path d="M92.9688 10.3353H35.8594C34.7902 10.3353 33.7649 10.76 33.0089 11.5161C32.2528 12.2721 31.8281 13.2974 31.8281 14.3666V22.1603H97V14.3666C97 13.2974 96.5753 12.2721 95.8193 11.5161C95.0633 10.76 94.0379 10.3353 92.9688 10.3353Z" fill="#006583" fill-opacity="0.5"/>
<path d="M42.2785 48.1055C42.7834 48.1055 43.277 47.9558 43.6969 47.6752C44.1168 47.3947 44.444 46.996 44.6372 46.5294C44.8305 46.0629 44.881 45.5496 44.7825 45.0543C44.684 44.559 44.4409 44.1041 44.0838 43.7471C43.7267 43.39 43.2718 43.1468 42.7766 43.0483C42.2813 42.9498 41.7679 43.0004 41.3014 43.1936C40.8349 43.3869 40.4362 43.7141 40.1556 44.134C39.8751 44.5538 39.7253 45.0474 39.7253 45.5524C39.7253 46.2295 39.9943 46.8789 40.4731 47.3577C40.9519 47.8365 41.6013 48.1055 42.2785 48.1055Z" fill="#006583" fill-opacity="0.5"/>
<path d="M46.8594 48.1055C47.5376 48.1055 48.188 47.8361 48.6676 47.3565C49.1471 46.877 49.4165 46.2266 49.4165 45.5484C49.4165 44.8702 49.1471 44.2197 48.6676 43.7402C48.188 43.2606 47.5376 42.9912 46.8594 42.9912C46.85 42.9912 46.8419 42.9912 46.8325 42.9912C47.2851 43.766 47.5236 44.6471 47.5236 45.5443C47.5236 46.4416 47.2851 47.3227 46.8325 48.0975C46.8419 48.1015 46.85 48.1055 46.8594 48.1055Z" fill="#006583" fill-opacity="0.5"/>
<path d="M31.8281 51.9687C31.8281 53.0378 32.2528 54.0632 33.0089 54.8192C33.7649 55.5752 34.7902 55.9999 35.8594 55.9999H92.9688C94.0379 55.9999 95.0633 55.5752 95.8193 54.8192C96.5753 54.0632 97 53.0378 97 51.9687V31.3986H31.8281V51.9687ZM42.2785 40.3036C43.0674 40.3071 43.8451 40.4909 44.5521 40.8411C45.2696 40.4868 46.0591 40.3028 46.8593 40.3036C47.6486 40.3029 48.4278 40.4805 49.1389 40.8231C49.8499 41.1657 50.4744 41.6645 50.9657 42.2823C51.4569 42.9 51.8023 43.6208 51.9761 44.3907C52.1498 45.1606 52.1474 45.9599 51.969 46.7287C51.7906 47.4976 51.4408 48.2162 50.9458 48.831C50.4508 49.4457 49.8233 49.9407 49.1102 50.279C48.3971 50.6173 47.6168 50.7902 46.8275 50.7847C46.0383 50.7792 45.2604 50.5955 44.5521 50.2473C43.8449 50.5969 43.0673 50.7807 42.2785 50.7848C40.8875 50.7848 39.5535 50.2323 38.5699 49.2487C37.5864 48.2652 37.0338 46.9312 37.0338 45.5402C37.0338 44.1492 37.5864 42.8152 38.5699 41.8316C39.5535 40.8481 40.8875 40.2955 42.2785 40.2955V40.3036Z" fill="#006583" fill-opacity="0.5"/>
<path d="M61.1406 0H4.03125C2.9621 0 1.93673 0.42472 1.18073 1.18073C0.42472 1.93673 0 2.9621 0 4.03125L0 41.6334C0 42.7026 0.42472 43.7279 1.18073 44.4839C1.93673 45.2399 2.9621 45.6647 4.03125 45.6647H61.1406C62.2098 45.6647 63.2351 45.2399 63.9911 44.4839C64.7472 43.7279 65.1719 42.7026 65.1719 41.6334V4.03125C65.1719 2.9621 64.7472 1.93673 63.9911 1.18073C63.2351 0.42472 62.2098 0 61.1406 0V0ZM62.4844 41.6334C62.4844 41.9898 62.3428 42.3316 62.0908 42.5836C61.8388 42.8356 61.497 42.9772 61.1406 42.9772H4.03125C3.67487 42.9772 3.33308 42.8356 3.08108 42.5836C2.82907 42.3316 2.6875 41.9898 2.6875 41.6334V4.03125C2.6875 3.67487 2.82907 3.33308 3.08108 3.08108C3.33308 2.82907 3.67487 2.6875 4.03125 2.6875H61.1406C61.497 2.6875 61.8388 2.82907 62.0908 3.08108C62.3428 3.33308 62.4844 3.67487 62.4844 4.03125V41.6334Z" fill="white"/>
<path d="M24.7453 22.4944H20.0139C19.6575 22.4944 19.3157 22.636 19.0637 22.888C18.8117 23.14 18.6702 23.4818 18.6702 23.8381C18.6702 24.1945 18.8117 24.5363 19.0637 24.7883C19.3157 25.0403 19.6575 25.1819 20.0139 25.1819H24.7453C25.1017 25.1819 25.4434 25.0403 25.6954 24.7883C25.9474 24.5363 26.089 24.1945 26.089 23.8381C26.089 23.4818 25.9474 23.14 25.6954 22.888C25.4434 22.636 25.1017 22.4944 24.7453 22.4944Z" fill="white"/>
<path d="M35.1847 22.4944H30.4534C30.097 22.4944 29.7552 22.636 29.5032 22.888C29.2512 23.14 29.1096 23.4818 29.1096 23.8381C29.1096 24.1945 29.2512 24.5363 29.5032 24.7883C29.7552 25.0403 30.097 25.1819 30.4534 25.1819H35.1847C35.5411 25.1819 35.8829 25.0403 36.1349 24.7883C36.3869 24.5363 36.5285 24.1945 36.5285 23.8381C36.5285 23.4818 36.3869 23.14 36.1349 22.888C35.8829 22.636 35.5411 22.4944 35.1847 22.4944Z" fill="white"/>
<path d="M46.9682 23.8381C46.9682 23.4818 46.8266 23.14 46.5746 22.888C46.3226 22.636 45.9808 22.4944 45.6244 22.4944H40.8931C40.5367 22.4944 40.1949 22.636 39.9429 22.888C39.6909 23.14 39.5493 23.4818 39.5493 23.8381C39.5493 24.1945 39.6909 24.5363 39.9429 24.7883C40.1949 25.0403 40.5367 25.1819 40.8931 25.1819H45.6244C45.9808 25.1819 46.3226 25.0403 46.5746 24.7883C46.8266 24.5363 46.9682 24.1945 46.9682 23.8381Z" fill="white"/>
<path d="M56.064 22.4944H51.3313C50.9749 22.4944 50.6331 22.636 50.3811 22.888C50.1291 23.14 49.9875 23.4818 49.9875 23.8381C49.9875 24.1945 50.1291 24.5363 50.3811 24.7883C50.6331 25.0403 50.9749 25.1819 51.3313 25.1819H56.0626C56.419 25.1819 56.7608 25.0403 57.0128 24.7883C57.2648 24.5363 57.4064 24.1945 57.4064 23.8381C57.4064 23.4818 57.2648 23.14 57.0128 22.888C56.7608 22.636 56.419 22.4944 56.0626 22.4944H56.064Z" fill="white"/>
<path d="M12.4687 17.7899H8.80564C7.74453 17.7913 6.72731 18.2136 5.97712 18.964C5.22693 19.7145 4.80502 20.7318 4.80396 21.7929V23.8731C4.80502 24.9341 5.22697 25.9513 5.9772 26.7015C6.72743 27.4517 7.74466 27.8737 8.80564 27.8748H12.4687C13.5297 27.8737 14.5469 27.4517 15.2971 26.7015C16.0474 25.9513 16.4693 24.9341 16.4704 23.8731V21.7929C16.4693 20.7318 16.0474 19.7145 15.2972 18.964C14.547 18.2136 13.5298 17.7913 12.4687 17.7899ZM13.7829 23.8731C13.7825 24.2215 13.644 24.5556 13.3976 24.802C13.1512 25.0483 12.8171 25.1869 12.4687 25.1873H8.80564C8.45721 25.1869 8.12315 25.0483 7.87676 24.802C7.63038 24.5556 7.49181 24.2215 7.49145 23.8731V21.7929C7.49181 21.4444 7.63034 21.1102 7.87668 20.8636C8.12303 20.617 8.45708 20.4781 8.80564 20.4774H12.4687C12.8173 20.4781 13.1513 20.617 13.3977 20.8636C13.644 21.1102 13.7825 21.4444 13.7829 21.7929V23.8731Z" fill="white"/>
<path d="M52.1617 28.2188C51.3615 28.2184 50.5721 28.4023 49.8545 28.7562C49.1473 28.4067 48.3697 28.2229 47.5808 28.2188C46.1899 28.2188 44.8559 28.7713 43.8723 29.7549C42.8887 30.7384 42.3362 32.0724 42.3362 33.4634C42.3362 34.8544 42.8887 36.1884 43.8723 37.1719C44.8559 38.1555 46.1899 38.7081 47.5808 38.7081C48.3693 38.7041 49.1464 38.5202 49.8531 38.1706C50.5613 38.5156 51.3381 38.6965 52.1259 38.6999C52.9136 38.7033 53.692 38.5291 54.4031 38.1902C55.1143 37.8513 55.7398 37.3564 56.2333 36.7424C56.7268 36.1284 57.0755 35.411 57.2535 34.6436C57.4316 33.8762 57.4343 33.0786 57.2615 32.31C57.0888 31.5414 56.7449 30.8217 56.2556 30.2043C55.7664 29.5869 55.1442 29.0878 54.4354 28.744C53.7266 28.4003 52.9494 28.2207 52.1617 28.2188ZM45.025 33.4594C45.025 32.9544 45.1748 32.4608 45.4553 32.0409C45.7358 31.6211 46.1346 31.2938 46.6011 31.1006C47.0676 30.9074 47.581 30.8568 48.0762 30.9553C48.5715 31.0538 49.0264 31.297 49.3835 31.654C49.7405 32.0111 49.9837 32.466 50.0822 32.9613C50.1807 33.4565 50.1302 33.9699 49.9369 34.4364C49.7437 34.9029 49.4164 35.3017 48.9966 35.5822C48.5767 35.8628 48.0831 36.0125 47.5782 36.0125C46.9022 36.0125 46.2538 35.7444 45.7752 35.2671C45.2966 34.7897 45.0268 34.1421 45.025 33.4661V33.4594ZM52.1617 36.0125C52.1523 36.0125 52.1442 36.0125 52.1348 36.0125C52.5874 35.2377 52.8258 34.3566 52.8258 33.4594C52.8258 32.5621 52.5874 31.681 52.1348 30.9062H52.1617C52.8399 30.9062 53.4903 31.1757 53.9699 31.6552C54.4494 32.1348 54.7188 32.7852 54.7188 33.4634C54.7188 34.1416 54.4494 34.792 53.9699 35.2716C53.4903 35.7511 52.8399 36.0206 52.1617 36.0206V36.0125Z" fill="white"/>
</svg>
