<svg width="79" height="65" viewBox="0 0 79 65" fill="none" xmlns="http://www.w3.org/2000/svg">
<path d="M75.5308 10.8639H30.4308C29.5107 10.8639 28.6283 11.2294 27.9777 11.88C27.3271 12.5306 26.9615 13.413 26.9615 14.3331V60.5896C26.9615 61.5097 27.3271 62.3921 27.9777 63.0427C28.6283 63.6933 29.5107 64.0588 30.4308 64.0588H75.5308C76.4509 64.0588 77.3333 63.6933 77.9839 63.0427C78.6345 62.3921 79 61.5097 79 60.5896V14.3331C79 13.413 78.6345 12.5306 77.9839 11.88C77.3333 11.2294 76.4509 10.8639 75.5308 10.8639ZM72.0616 53.6511C72.0616 54.5712 71.6961 55.4536 71.0455 56.1042C70.3949 56.7548 69.5124 57.1203 68.5923 57.1203H37.3692C36.4491 57.1203 35.5667 56.7548 34.9161 56.1042C34.2655 55.4536 33.9 54.5712 33.9 53.6511V44.3998C33.9 43.4797 34.2655 42.5973 34.9161 41.9467C35.5667 41.2961 36.4491 40.9306 37.3692 40.9306H68.5923C69.5124 40.9306 70.3949 41.2961 71.0455 41.9467C71.6961 42.5973 72.0616 43.4797 72.0616 44.3998V53.6511ZM72.0616 31.6793C72.0616 32.5994 71.6961 33.4818 71.0455 34.1324C70.3949 34.783 69.5124 35.1485 68.5923 35.1485H38.5257C37.6056 35.1485 36.7231 34.783 36.0725 34.1324C35.4219 33.4818 35.0564 32.5994 35.0564 31.6793V22.428C35.0564 21.5079 35.4219 20.6255 36.0725 19.9749C36.7231 19.3243 37.6056 18.9588 38.5257 18.9588H68.5923C69.5124 18.9588 70.3949 19.3243 71.0455 19.9749C71.6961 20.6255 72.0616 21.5079 72.0616 22.428V31.6793Z" fill="#006583" fill-opacity="0.5"/>
<path d="M68.5924 21.2715H38.5257C38.219 21.2715 37.9248 21.3933 37.708 21.6102C37.4911 21.8271 37.3693 22.1212 37.3693 22.4279V31.6792C37.3693 31.9859 37.4911 32.28 37.708 32.4969C37.9248 32.7138 38.219 32.8356 38.5257 32.8356H68.5924C68.8991 32.8356 69.1932 32.7138 69.4101 32.4969C69.6269 32.28 69.7488 31.9859 69.7488 31.6792V22.4279C69.7488 22.1212 69.6269 21.8271 69.4101 21.6102C69.1932 21.3933 68.8991 21.2715 68.5924 21.2715ZM45.4641 28.2099H40.8385C40.5318 28.2099 40.2377 28.0881 40.0208 27.8712C39.8039 27.6544 39.6821 27.3602 39.6821 27.0535C39.6821 26.7468 39.8039 26.4527 40.0208 26.2358C40.2377 26.019 40.5318 25.8971 40.8385 25.8971H45.4641C45.7708 25.8971 46.065 26.019 46.2818 26.2358C46.4987 26.4527 46.6206 26.7468 46.6206 27.0535C46.6206 27.3602 46.4987 27.6544 46.2818 27.8712C46.065 28.0881 45.7708 28.2099 45.4641 28.2099ZM66.2795 28.2099H50.0898C49.7831 28.2099 49.4889 28.0881 49.2721 27.8712C49.0552 27.6544 48.9334 27.3602 48.9334 27.0535C48.9334 26.7468 49.0552 26.4527 49.2721 26.2358C49.4889 26.019 49.7831 25.8971 50.0898 25.8971H66.2795C66.5862 25.8971 66.8804 26.019 67.0972 26.2358C67.3141 26.4527 67.436 26.7468 67.436 27.0535C67.436 27.3602 67.3141 27.6544 67.0972 27.8712C66.8804 28.0881 66.5862 28.2099 66.2795 28.2099Z" fill="#006583" fill-opacity="0.5"/>
<path d="M68.5923 43.2434H37.3692C37.0625 43.2434 36.7683 43.3652 36.5515 43.5821C36.3346 43.799 36.2128 44.0931 36.2128 44.3998V53.6511C36.2128 53.9578 36.3346 54.2519 36.5515 54.4688C36.7683 54.6857 37.0625 54.8075 37.3692 54.8075H68.5923C68.899 54.8075 69.1931 54.6857 69.41 54.4688C69.6269 54.2519 69.7487 53.9578 69.7487 53.6511V44.3998C69.7487 44.0931 69.6269 43.799 69.41 43.5821C69.1931 43.3652 68.899 43.2434 68.5923 43.2434ZM41.9948 50.1819H40.8384C40.5317 50.1819 40.2376 50.06 40.0207 49.8432C39.8038 49.6263 39.682 49.3322 39.682 49.0255C39.682 48.7188 39.8038 48.4246 40.0207 48.2078C40.2376 47.9909 40.5317 47.8691 40.8384 47.8691H41.9948C42.3015 47.8691 42.5957 47.9909 42.8125 48.2078C43.0294 48.4246 43.1512 48.7188 43.1512 49.0255C43.1512 49.3322 43.0294 49.6263 42.8125 49.8432C42.5957 50.06 42.3015 50.1819 41.9948 50.1819ZM47.7769 50.1819H46.6205C46.3138 50.1819 46.0196 50.06 45.8028 49.8432C45.5859 49.6263 45.4641 49.3322 45.4641 49.0255C45.4641 48.7188 45.5859 48.4246 45.8028 48.2078C46.0196 47.9909 46.3138 47.8691 46.6205 47.8691H47.7769C48.0836 47.8691 48.3777 47.9909 48.5946 48.2078C48.8115 48.4246 48.9333 48.7188 48.9333 49.0255C48.9333 49.3322 48.8115 49.6263 48.5946 49.8432C48.3777 50.06 48.0836 50.1819 47.7769 50.1819ZM54.1371 50.1819H52.9807C52.674 50.1819 52.3799 50.06 52.163 49.8432C51.9462 49.6263 51.8243 49.3322 51.8243 49.0255C51.8243 48.7188 51.9462 48.4246 52.163 48.2078C52.3799 47.9909 52.674 47.8691 52.9807 47.8691H54.1371C54.4438 47.8691 54.738 47.9909 54.9548 48.2078C55.1717 48.4246 55.2936 48.7188 55.2936 49.0255C55.2936 49.3322 55.1717 49.6263 54.9548 49.8432C54.738 50.06 54.4438 50.1819 54.1371 50.1819ZM60.4974 50.1819H59.341C59.0343 50.1819 58.7402 50.06 58.5233 49.8432C58.3064 49.6263 58.1846 49.3322 58.1846 49.0255C58.1846 48.7188 58.3064 48.4246 58.5233 48.2078C58.7402 47.9909 59.0343 47.8691 59.341 47.8691H60.4974C60.8041 47.8691 61.0982 47.9909 61.3151 48.2078C61.532 48.4246 61.6538 48.7188 61.6538 49.0255C61.6538 49.3322 61.532 49.6263 61.3151 49.8432C61.0982 50.06 60.8041 50.1819 60.4974 50.1819ZM66.2795 50.1819H65.123C64.8163 50.1819 64.5222 50.06 64.3053 49.8432C64.0885 49.6263 63.9666 49.3322 63.9666 49.0255C63.9666 48.7188 64.0885 48.4246 64.3053 48.2078C64.5222 47.9909 64.8163 47.8691 65.123 47.8691H66.2795C66.5862 47.8691 66.8803 47.9909 67.0972 48.2078C67.314 48.4246 67.4359 48.7188 67.4359 49.0255C67.4359 49.3322 67.314 49.6263 67.0972 49.8432C66.8803 50.06 66.5862 50.1819 66.2795 50.1819Z" fill="#006583" fill-opacity="0.5"/>
<path d="M3.46923 51.8737H54.3513C55.2714 51.8737 56.1538 51.5082 56.8044 50.8575C57.455 50.2069 57.8205 49.3245 57.8205 48.4044V4.46081C57.8205 3.54071 57.455 2.6583 56.8044 2.00769C56.1538 1.35708 55.2714 0.991577 54.3513 0.991577H3.46923C2.54914 0.991577 1.66672 1.35708 1.01611 2.00769C0.365507 2.6583 0 3.54071 0 4.46081V48.4044C0 49.3245 0.365507 50.2069 1.01611 50.8575C1.66672 51.5082 2.54914 51.8737 3.46923 51.8737ZM54.3513 49.5608H3.46923C3.16253 49.5608 2.8684 49.439 2.65153 49.2221C2.43466 49.0053 2.31282 48.7111 2.31282 48.4044V10.2429H55.5077V48.4044C55.5077 48.7111 55.3859 49.0053 55.169 49.2221C54.9522 49.439 54.658 49.5608 54.3513 49.5608ZM3.46923 3.3044H54.3513C54.658 3.3044 54.9522 3.42624 55.169 3.6431C55.3859 3.85997 55.5077 4.15411 55.5077 4.46081V7.93004H2.31282V4.46081C2.31282 4.15411 2.43466 3.85997 2.65153 3.6431C2.8684 3.42624 3.16253 3.3044 3.46923 3.3044V3.3044Z" fill="#131313"/>
<path d="M47.4128 18.3378H31.223C30.3029 18.3378 29.4205 18.7033 28.7699 19.3539C28.1193 20.0045 27.7538 20.8869 27.7538 21.807V24.1198C27.7538 25.0399 28.1193 25.9223 28.7699 26.5729C29.4205 27.2235 30.3029 27.5891 31.223 27.5891H47.4128C48.3329 27.5891 49.2153 27.2235 49.8659 26.5729C50.5165 25.9223 50.882 25.0399 50.882 24.1198V21.807C50.882 20.8869 50.5165 20.0045 49.8659 19.3539C49.2153 18.7033 48.3329 18.3378 47.4128 18.3378V18.3378ZM48.5692 24.1198C48.5692 24.4265 48.4473 24.7207 48.2305 24.9375C48.0136 25.1544 47.7195 25.2762 47.4128 25.2762H31.223C30.9163 25.2762 30.6222 25.1544 30.4053 24.9375C30.1884 24.7207 30.0666 24.4265 30.0666 24.1198V21.807C30.0666 21.5003 30.1884 21.2062 30.4053 20.9893C30.6222 20.7724 30.9163 20.6506 31.223 20.6506H47.4128C47.7195 20.6506 48.0136 20.7724 48.2305 20.9893C48.4473 21.2062 48.5692 21.5003 48.5692 21.807V24.1198Z" fill="#131313"/>
<path d="M47.4128 32.2146H31.223C30.3029 32.2146 29.4205 32.5801 28.7699 33.2307C28.1193 33.8813 27.7538 34.7637 27.7538 35.6838V37.9967C27.7538 38.9168 28.1193 39.7992 28.7699 40.4498C29.4205 41.1004 30.3029 41.4659 31.223 41.4659H47.4128C48.3329 41.4659 49.2153 41.1004 49.8659 40.4498C50.5165 39.7992 50.882 38.9168 50.882 37.9967V35.6838C50.882 34.7637 50.5165 33.8813 49.8659 33.2307C49.2153 32.5801 48.3329 32.2146 47.4128 32.2146ZM48.5692 37.9967C48.5692 38.3034 48.4473 38.5975 48.2305 38.8144C48.0136 39.0312 47.7195 39.1531 47.4128 39.1531H31.223C30.9163 39.1531 30.6222 39.0312 30.4053 38.8144C30.1884 38.5975 30.0666 38.3034 30.0666 37.9967V35.6838C30.0666 35.3771 30.1884 35.083 30.4053 34.8661C30.6222 34.6493 30.9163 34.5274 31.223 34.5274H47.4128C47.7195 34.5274 48.0136 34.6493 48.2305 34.8661C48.4473 35.083 48.5692 35.3771 48.5692 35.6838V37.9967Z" fill="#131313"/>
<path d="M19.6879 29.2508C20.7276 28.3104 21.458 27.0771 21.7829 25.7134C22.1078 24.3496 22.012 22.9195 21.5081 21.6113C21.0042 20.3031 20.1159 19.1782 18.9601 18.3848C17.8043 17.5914 16.4353 17.1667 15.0334 17.1667C13.6315 17.1667 12.2624 17.5914 11.1066 18.3848C9.95085 19.1782 9.06249 20.3031 8.55859 21.6113C8.0547 22.9195 7.9589 24.3496 8.28382 25.7134C8.60874 27.0771 9.33914 28.3104 10.3788 29.2508C9.3566 29.7036 8.48759 30.443 7.87699 31.3796C7.26639 32.3161 6.9404 33.4096 6.93848 34.5275V41.466C6.93848 42.3861 7.30398 43.2685 7.95459 43.9191C8.6052 44.5697 9.48761 44.9352 10.4077 44.9352H19.659C20.5791 44.9352 21.4615 44.5697 22.1121 43.9191C22.7627 43.2685 23.1282 42.3861 23.1282 41.466V34.5275C23.1263 33.4096 22.8003 32.3161 22.1897 31.3796C21.5791 30.443 20.7101 29.7036 19.6879 29.2508V29.2508ZM15.0334 19.4942C15.9482 19.4942 16.8425 19.7655 17.6032 20.2738C18.3639 20.782 18.9568 21.5045 19.3069 22.3497C19.657 23.1949 19.7486 24.125 19.5701 25.0223C19.3916 25.9195 18.9511 26.7438 18.3042 27.3907C17.6573 28.0376 16.8331 28.4781 15.9358 28.6566C15.0385 28.8351 14.1084 28.7435 13.2632 28.3934C12.418 28.0433 11.6955 27.4504 11.1873 26.6897C10.679 25.929 10.4077 25.0347 10.4077 24.1198C10.4077 22.893 10.8951 21.7165 11.7625 20.849C12.63 19.9815 13.8066 19.4942 15.0334 19.4942V19.4942ZM20.8154 41.466C20.8154 41.7727 20.6936 42.0668 20.4767 42.2837C20.2598 42.5006 19.9657 42.6224 19.659 42.6224H10.4077C10.101 42.6224 9.80687 42.5006 9.59 42.2837C9.37313 42.0668 9.2513 41.7727 9.2513 41.466V34.5275C9.2513 33.6074 9.61681 32.725 10.2674 32.0744C10.918 31.4238 11.8004 31.0583 12.7205 31.0583H17.3462C18.2663 31.0583 19.1487 31.4238 19.7993 32.0744C20.4499 32.725 20.8154 33.6074 20.8154 34.5275V41.466Z" fill="#131313"/>
</svg>
