<svg width="94" height="83" viewBox="0 0 94 83" fill="none" xmlns="http://www.w3.org/2000/svg">
<path d="M88.9688 11.875H27.0938C25.9749 11.875 24.9018 12.3195 24.1106 13.1106C23.3195 13.9018 22.875 14.9749 22.875 16.0938V24.5312C22.875 25.6501 23.3195 26.7232 24.1106 27.5144C24.9018 28.3055 25.9749 28.75 27.0938 28.75H29.9062V80.7812C29.9063 81.0502 29.9834 81.3135 30.1286 81.54C30.2737 81.7664 30.4807 81.9465 30.7251 82.0588C30.9695 82.1712 31.241 82.2111 31.5073 82.1738C31.7737 82.1366 32.0238 82.0237 32.228 81.8486L41.0873 74.2548L48.6038 81.7712C48.8675 82.0349 49.2251 82.183 49.598 82.183C49.9709 82.183 50.3285 82.0349 50.5922 81.7712L58.0312 74.3308L65.4745 81.7741C65.7382 82.0377 66.0959 82.1858 66.4688 82.1858C66.8416 82.1858 67.1993 82.0377 67.463 81.7741L74.9808 74.2577L83.8402 81.8514C84.0446 82.0249 84.2945 82.1363 84.5602 82.1725C84.8259 82.2087 85.0964 82.1682 85.3398 82.0557C85.5833 81.9432 85.7895 81.7635 85.9341 81.5377C86.0788 81.3119 86.1558 81.0494 86.1562 80.7812V28.75H88.9688C90.0876 28.75 91.1607 28.3055 91.9519 27.5144C92.743 26.7232 93.1875 25.6501 93.1875 24.5312V16.0938C93.1875 14.9749 92.743 13.9018 91.9519 13.1106C91.1607 12.3195 90.0876 11.875 88.9688 11.875ZM77.7188 63.9062H38.3438C37.9708 63.9062 37.6131 63.7581 37.3494 63.4944C37.0857 63.2306 36.9375 62.873 36.9375 62.5C36.9375 62.127 37.0857 61.7694 37.3494 61.5056C37.6131 61.2419 37.9708 61.0938 38.3438 61.0938H77.7188C78.0917 61.0938 78.4494 61.2419 78.7131 61.5056C78.9768 61.7694 79.125 62.127 79.125 62.5C79.125 62.873 78.9768 63.2306 78.7131 63.4944C78.4494 63.7581 78.0917 63.9062 77.7188 63.9062ZM77.7188 54.0625H38.3438C37.9708 54.0625 37.6131 53.9143 37.3494 53.6506C37.0857 53.3869 36.9375 53.0292 36.9375 52.6562C36.9375 52.2833 37.0857 51.9256 37.3494 51.6619C37.6131 51.3982 37.9708 51.25 38.3438 51.25H77.7188C78.0917 51.25 78.4494 51.3982 78.7131 51.6619C78.9768 51.9256 79.125 52.2833 79.125 52.6562C79.125 53.0292 78.9768 53.3869 78.7131 53.6506C78.4494 53.9143 78.0917 54.0625 77.7188 54.0625ZM77.7188 44.2188H38.3438C37.9708 44.2188 37.6131 44.0706 37.3494 43.8069C37.0857 43.5431 36.9375 43.1855 36.9375 42.8125C36.9375 42.4395 37.0857 42.0819 37.3494 41.8181C37.6131 41.5544 37.9708 41.4062 38.3438 41.4062H77.7188C78.0917 41.4062 78.4494 41.5544 78.7131 41.8181C78.9768 42.0819 79.125 42.4395 79.125 42.8125C79.125 43.1855 78.9768 43.5431 78.7131 43.8069C78.4494 44.0706 78.0917 44.2188 77.7188 44.2188ZM77.7188 34.375H38.3438C37.9708 34.375 37.6131 34.2268 37.3494 33.9631C37.0857 33.6994 36.9375 33.3417 36.9375 32.9688C36.9375 32.5958 37.0857 32.2381 37.3494 31.9744C37.6131 31.7107 37.9708 31.5625 38.3438 31.5625H77.7188C78.0917 31.5625 78.4494 31.7107 78.7131 31.9744C78.9768 32.2381 79.125 32.5958 79.125 32.9688C79.125 33.3417 78.9768 33.6994 78.7131 33.9631C78.4494 34.2268 78.0917 34.375 77.7188 34.375ZM90.375 24.5312C90.375 24.9042 90.2268 25.2619 89.9631 25.5256C89.6994 25.7893 89.3417 25.9375 88.9688 25.9375H86.1562V20.3125C86.1562 19.9395 86.0081 19.5819 85.7444 19.3181C85.4806 19.0544 85.123 18.9062 84.75 18.9062H31.3125C30.9395 18.9062 30.5819 19.0544 30.3181 19.3181C30.0544 19.5819 29.9062 19.9395 29.9062 20.3125V25.9375H27.0938C26.7208 25.9375 26.3631 25.7893 26.0994 25.5256C25.8357 25.2619 25.6875 24.9042 25.6875 24.5312V16.0938C25.6875 15.7208 25.8357 15.3631 26.0994 15.0994C26.3631 14.8357 26.7208 14.6875 27.0938 14.6875H88.9688C89.3417 14.6875 89.6994 14.8357 89.9631 15.0994C90.2268 15.3631 90.375 15.7208 90.375 16.0938V24.5312Z" fill="#006583" fill-opacity="0.5"/>
<path d="M54.8438 0H9.84375C7.23394 0.00297754 4.73187 1.04104 2.88646 2.88646C1.04104 4.73187 0.00297754 7.23394 0 9.84375V64.6875C0 65.8064 0.444474 66.8794 1.23564 67.6706C2.02681 68.4618 3.09987 68.9062 4.21875 68.9062H43.5938C44.7126 68.9062 45.7857 68.4618 46.5769 67.6706C47.368 66.8794 47.8125 65.8064 47.8125 64.6875V46.4062H59.0625C60.5543 46.4062 61.9851 45.8136 63.04 44.7587C64.0949 43.7038 64.6875 42.2731 64.6875 40.7812V9.84375C64.6845 7.23394 63.6465 4.73187 61.801 2.88646C59.9556 1.04104 57.4536 0.00297754 54.8438 0ZM45 9.84375V64.6875C45 65.0605 44.8518 65.4181 44.5881 65.6819C44.3244 65.9456 43.9667 66.0938 43.5938 66.0938H4.21875C3.84579 66.0938 3.4881 65.9456 3.22438 65.6819C2.96066 65.4181 2.8125 65.0605 2.8125 64.6875V9.84375C2.81473 7.97963 3.55624 6.1925 4.87437 4.87437C6.1925 3.55624 7.97963 2.81473 9.84375 2.8125H47.9531C47.0167 3.72819 46.273 4.82204 45.7658 6.0296C45.2586 7.23716 44.9982 8.53401 45 9.84375ZM47.8125 43.5938V26.7188H52.0312C52.4042 26.7188 52.7619 26.8669 53.0256 27.1306C53.2893 27.3944 53.4375 27.752 53.4375 28.125V40.7812C53.4433 41.7716 53.7132 42.7425 54.2194 43.5938H47.8125ZM61.875 40.7812C61.875 41.5272 61.5787 42.2425 61.0512 42.77C60.5238 43.2974 59.8084 43.5938 59.0625 43.5938C58.3166 43.5938 57.6012 43.2974 57.0738 42.77C56.5463 42.2425 56.25 41.5272 56.25 40.7812V28.125C56.25 27.0061 55.8055 25.9331 55.0144 25.1419C54.2232 24.3507 53.1501 23.9062 52.0312 23.9062H47.8125V9.84375C47.8125 7.97895 48.5533 6.19052 49.8719 4.87191C51.1905 3.55329 52.9789 2.8125 54.8438 2.8125C56.7086 2.8125 58.497 3.55329 59.8156 4.87191C61.1342 6.19052 61.875 7.97895 61.875 9.84375V40.7812Z" fill="#131313"/>
<path d="M15.4532 42.1664C15.1298 42.0525 14.7979 41.9302 14.4689 41.8064V36.2911C14.9197 36.4195 15.342 36.6324 15.7134 36.9183C15.9901 37.1616 16.3512 37.2866 16.7191 37.2664C17.087 37.2462 17.4323 37.0824 17.6807 36.8102C17.9291 36.5381 18.0607 36.1793 18.0473 35.8111C18.0339 35.4429 17.8765 35.0946 17.609 34.8412C16.7033 34.1031 15.6212 33.6131 14.4689 33.4195V32.3438C14.4689 31.9708 14.3207 31.6131 14.057 31.3494C13.7933 31.0857 13.4356 30.9375 13.0626 30.9375C12.6897 30.9375 12.332 31.0857 12.0682 31.3494C11.8045 31.6131 11.6564 31.9708 11.6564 32.3438V33.5292C11.5059 33.5658 11.3681 33.5742 11.2134 33.6206C10.2997 33.9084 9.48288 34.4422 8.85256 35.1636C8.22224 35.8849 7.80275 36.766 7.64012 37.71C7.45296 38.5331 7.49535 39.3918 7.76266 40.1925C8.02997 40.9932 8.51195 41.7052 9.15605 42.2508C9.92814 42.831 10.7677 43.3154 11.6564 43.6936V50.8247C10.7679 50.7332 9.9211 50.4017 9.20668 49.8656C9.05215 49.7613 8.87843 49.6888 8.69561 49.6522C8.5128 49.6157 8.32454 49.6159 8.14178 49.6527C7.95903 49.6896 7.78544 49.7624 7.6311 49.867C7.47676 49.9716 7.34475 50.1058 7.24276 50.2619C7.14077 50.418 7.07083 50.5927 7.03701 50.7761C7.00318 50.9594 7.00616 51.1477 7.04575 51.3298C7.08534 51.512 7.16077 51.6845 7.26763 51.8373C7.3745 51.99 7.51068 52.12 7.66824 52.2197C8.83376 53.0685 10.2173 53.5671 11.6564 53.6569V54.8438C11.6564 55.2167 11.8045 55.5744 12.0682 55.8381C12.332 56.1018 12.6897 56.25 13.0626 56.25C13.4356 56.25 13.7933 56.1018 14.057 55.8381C14.3207 55.5744 14.4689 55.2167 14.4689 54.8438V53.5205C15.6702 53.2335 16.7613 52.6013 17.6077 51.7017C18.454 50.8021 19.0186 49.6746 19.2318 48.458C19.489 47.1279 19.2454 45.7496 18.5479 44.5883C17.8504 43.4269 16.7482 42.5643 15.4532 42.1664ZM11.6564 40.5337C11.3911 40.3854 11.136 40.2196 10.8928 40.0373C10.6591 39.8061 10.491 39.517 10.4055 39.1995C10.3201 38.8821 10.3203 38.5476 10.4062 38.2303C10.4739 37.8668 10.6212 37.5229 10.8376 37.2231C11.054 36.9233 11.3341 36.6751 11.6578 36.4964L11.6564 40.5337ZM16.4587 47.9869C16.3634 48.5487 16.1323 49.0787 15.7855 49.5309C15.4387 49.9831 14.9867 50.3437 14.4689 50.5814V44.8017L14.5153 44.8186C15.1778 45.0053 15.7454 45.4352 16.1047 46.0224C16.4639 46.6095 16.5884 47.3106 16.4531 47.9855L16.4587 47.9869Z" fill="#131313"/>
<path d="M39.375 23.9062H8.4375C8.06454 23.9062 7.70685 24.0544 7.44313 24.3181C7.17941 24.5819 7.03125 24.9395 7.03125 25.3125C7.03125 25.6855 7.17941 26.0431 7.44313 26.3069C7.70685 26.5706 8.06454 26.7188 8.4375 26.7188H39.375C39.748 26.7188 40.1056 26.5706 40.3694 26.3069C40.6331 26.0431 40.7812 25.6855 40.7812 25.3125C40.7812 24.9395 40.6331 24.5819 40.3694 24.3181C40.1056 24.0544 39.748 23.9062 39.375 23.9062Z" fill="#131313"/>
<path d="M39.375 33.75H25.3125C24.9395 33.75 24.5819 33.8982 24.3181 34.1619C24.0544 34.4256 23.9062 34.7833 23.9062 35.1562C23.9062 35.5292 24.0544 35.8869 24.3181 36.1506C24.5819 36.4143 24.9395 36.5625 25.3125 36.5625H39.375C39.748 36.5625 40.1056 36.4143 40.3694 36.1506C40.6331 35.8869 40.7812 35.5292 40.7812 35.1562C40.7812 34.7833 40.6331 34.4256 40.3694 34.1619C40.1056 33.8982 39.748 33.75 39.375 33.75Z" fill="#131313"/>
<path d="M39.375 43.5938H25.3125C24.9395 43.5938 24.5819 43.7419 24.3181 44.0056C24.0544 44.2694 23.9062 44.627 23.9062 45C23.9062 45.373 24.0544 45.7306 24.3181 45.9944C24.5819 46.2581 24.9395 46.4062 25.3125 46.4062H39.375C39.748 46.4062 40.1056 46.2581 40.3694 45.9944C40.6331 45.7306 40.7812 45.373 40.7812 45C40.7812 44.627 40.6331 44.2694 40.3694 44.0056C40.1056 43.7419 39.748 43.5938 39.375 43.5938Z" fill="#131313"/>
<path d="M39.375 53.4375H25.3125C24.9395 53.4375 24.5819 53.5857 24.3181 53.8494C24.0544 54.1131 23.9062 54.4708 23.9062 54.8438C23.9062 55.2167 24.0544 55.5744 24.3181 55.8381C24.5819 56.1018 24.9395 56.25 25.3125 56.25H39.375C39.748 56.25 40.1056 56.1018 40.3694 55.8381C40.6331 55.5744 40.7812 55.2167 40.7812 54.8438C40.7812 54.4708 40.6331 54.1131 40.3694 53.8494C40.1056 53.5857 39.748 53.4375 39.375 53.4375Z" fill="#131313"/>
<path d="M39.375 14.0625H8.4375C8.06454 14.0625 7.70685 14.2107 7.44313 14.4744C7.17941 14.7381 7.03125 15.0958 7.03125 15.4688C7.03125 15.8417 7.17941 16.1994 7.44313 16.4631C7.70685 16.7268 8.06454 16.875 8.4375 16.875H39.375C39.748 16.875 40.1056 16.7268 40.3694 16.4631C40.6331 16.1994 40.7812 15.8417 40.7812 15.4688C40.7812 15.0958 40.6331 14.7381 40.3694 14.4744C40.1056 14.2107 39.748 14.0625 39.375 14.0625Z" fill="#131313"/>
</svg>
