<svg width="68" height="47" viewBox="0 0 68 47" fill="none" xmlns="http://www.w3.org/2000/svg">
<path d="M64.3179 1.91804H34.5446C34.1559 1.91808 33.7714 1.99939 33.4149 2.15693C33.0584 2.31447 32.7374 2.54488 32.4719 2.83388C32.2064 3.12288 32.0021 3.46431 31.8715 3.83702C31.7409 4.20973 31.6869 4.60578 31.7128 5.00061L34.2929 43.5327C34.3429 44.2634 34.6627 44.9477 35.1881 45.4481C35.7134 45.9485 36.4053 46.2278 37.1247 46.23H61.7378C62.4572 46.2278 63.1491 45.9485 63.6744 45.4481C64.1998 44.9477 64.5196 44.2634 64.5696 43.5327L67.1497 5.00061C67.1756 4.60578 67.1216 4.20973 66.991 3.83702C66.8605 3.46431 66.6561 3.12288 66.3906 2.83388C66.1251 2.54488 65.8041 2.31447 65.4476 2.15693C65.0911 1.99939 64.7066 1.91808 64.3179 1.91804ZM44.165 40.4501H40.6643C40.4133 40.4501 40.1727 40.3487 39.9952 40.168C39.8178 39.9874 39.7181 39.7423 39.7181 39.4868C39.7181 39.2314 39.8178 38.9863 39.9952 38.8057C40.1727 38.625 40.4133 38.5235 40.6643 38.5235H44.165C44.4159 38.5235 44.6566 38.625 44.834 38.8057C45.0115 38.9863 45.1112 39.2314 45.1112 39.4868C45.1112 39.7423 45.0115 39.9874 44.834 40.168C44.6566 40.3487 44.4159 40.4501 44.165 40.4501ZM44.165 34.6703H40.6643C40.4133 34.6703 40.1727 34.5688 39.9952 34.3882C39.8178 34.2075 39.7181 33.9625 39.7181 33.707C39.7181 33.4515 39.8178 33.2065 39.9952 33.0259C40.1727 32.8452 40.4133 32.7437 40.6643 32.7437H44.165C44.4159 32.7437 44.6566 32.8452 44.834 33.0259C45.0115 33.2065 45.1112 33.4515 45.1112 33.707C45.1112 33.9625 45.0115 34.2075 44.834 34.3882C44.6566 34.5688 44.4159 34.6703 44.165 34.6703ZM44.165 28.8905H40.6643C40.4133 28.8905 40.1727 28.789 39.9952 28.6084C39.8178 28.4277 39.7181 28.1827 39.7181 27.9272C39.7181 27.6717 39.8178 27.4267 39.9952 27.2461C40.1727 27.0654 40.4133 26.9639 40.6643 26.9639H44.165C44.4159 26.9639 44.6566 27.0654 44.834 27.2461C45.0115 27.4267 45.1112 27.6717 45.1112 27.9272C45.1112 28.1827 45.0115 28.4277 44.834 28.6084C44.6566 28.789 44.4159 28.8905 44.165 28.8905ZM51.1854 40.4501H47.6771C47.4262 40.4501 47.1855 40.3487 47.0081 40.168C46.8306 39.9874 46.731 39.7423 46.731 39.4868C46.731 39.2314 46.8306 38.9863 47.0081 38.8057C47.1855 38.625 47.4262 38.5235 47.6771 38.5235H51.1854C51.4363 38.5235 51.677 38.625 51.8544 38.8057C52.0319 38.9863 52.1315 39.2314 52.1315 39.4868C52.1315 39.7423 52.0319 39.9874 51.8544 40.168C51.677 40.3487 51.4363 40.4501 51.1854 40.4501ZM51.1854 34.6703H47.6771C47.4262 34.6703 47.1855 34.5688 47.0081 34.3882C46.8306 34.2075 46.731 33.9625 46.731 33.707C46.731 33.4515 46.8306 33.2065 47.0081 33.0259C47.1855 32.8452 47.4262 32.7437 47.6771 32.7437H51.1854C51.4363 32.7437 51.677 32.8452 51.8544 33.0259C52.0319 33.2065 52.1315 33.4515 52.1315 33.707C52.1315 33.9625 52.0319 34.2075 51.8544 34.3882C51.677 34.5688 51.4363 34.6703 51.1854 34.6703ZM51.1854 28.8905H47.6771C47.4262 28.8905 47.1855 28.789 47.0081 28.6084C46.8306 28.4277 46.731 28.1827 46.731 27.9272C46.731 27.6717 46.8306 27.4267 47.0081 27.2461C47.1855 27.0654 47.4262 26.9639 47.6771 26.9639H51.1854C51.4363 26.9639 51.677 27.0654 51.8544 27.2461C52.0319 27.4267 52.1315 27.6717 52.1315 27.9272C52.1315 28.1827 52.0319 28.4277 51.8544 28.6084C51.677 28.789 51.4363 28.8905 51.1854 28.8905ZM58.202 40.4501H54.6937C54.4428 40.4501 54.2021 40.3487 54.0247 40.168C53.8472 39.9874 53.7476 39.7423 53.7476 39.4868C53.7476 39.2314 53.8472 38.9863 54.0247 38.8057C54.2021 38.625 54.4428 38.5235 54.6937 38.5235H58.202C58.4529 38.5235 58.6936 38.625 58.871 38.8057C59.0485 38.9863 59.1482 39.2314 59.1482 39.4868C59.1482 39.7423 59.0485 39.9874 58.871 40.168C58.6936 40.3487 58.4529 40.4501 58.202 40.4501ZM58.202 34.6703H54.6937C54.4428 34.6703 54.2021 34.5688 54.0247 34.3882C53.8472 34.2075 53.7476 33.9625 53.7476 33.707C53.7476 33.4515 53.8472 33.2065 54.0247 33.0259C54.2021 32.8452 54.4428 32.7437 54.6937 32.7437H58.202C58.4529 32.7437 58.6936 32.8452 58.871 33.0259C59.0485 33.2065 59.1482 33.4515 59.1482 33.707C59.1482 33.9625 59.0485 34.2075 58.871 34.3882C58.6936 34.5688 58.4529 34.6703 58.202 34.6703ZM58.202 28.8905H54.6937C54.4428 28.8905 54.2021 28.789 54.0247 28.6084C53.8472 28.4277 53.7476 28.1827 53.7476 27.9272C53.7476 27.6717 53.8472 27.4267 54.0247 27.2461C54.2021 27.0654 54.4428 26.9639 54.6937 26.9639H58.202C58.4529 26.9639 58.6936 27.0654 58.871 27.2461C59.0485 27.4267 59.1482 27.6717 59.1482 27.9272C59.1482 28.1827 59.0485 28.4277 58.871 28.6084C58.6936 28.789 58.4529 28.8905 58.202 28.8905ZM60.4273 20.4135C60.3774 21.1433 60.0583 21.8269 59.534 22.3272C59.0096 22.8275 58.3189 23.1074 57.6003 23.1107H41.267C40.5475 23.1088 39.8554 22.8295 39.33 22.3291C38.8046 21.8287 38.4849 21.1442 38.4352 20.4135L37.7899 10.7804C37.764 10.3856 37.818 9.98955 37.9486 9.61684C38.0791 9.24413 38.2835 8.9027 38.549 8.61369C38.8145 8.32469 39.1355 8.09428 39.492 7.93675C39.8485 7.77921 40.233 7.6979 40.6217 7.69785H58.2408C58.6295 7.6979 59.014 7.77921 59.3705 7.93675C59.7271 8.09428 60.048 8.32469 60.3135 8.61369C60.579 8.9027 60.7834 9.24413 60.9139 9.61684C61.0445 9.98955 61.0985 10.3856 61.0726 10.7804L60.4273 20.4135Z" fill="#006583" fill-opacity="0.5"/>
<path d="M43.2998 0.651367H2.9415C2.18595 0.651367 1.46134 0.95151 0.927082 1.48577C0.392824 2.02003 0.0926809 2.74464 0.0926809 3.50019C0.0926809 13.7218 -0.00227993 12.9963 0.0926809 12.9963V28.19C0.0926809 28.9456 0.392824 29.6702 0.927082 30.2044C1.46134 30.7387 2.18595 31.0388 2.9415 31.0388H43.2998C44.0554 31.0388 44.78 30.7387 45.3143 30.2044C45.8485 29.6702 46.1487 28.9456 46.1487 28.19C46.1487 28.095 46.0537 3.50019 46.1487 3.50019C46.1487 2.74464 45.8485 2.02003 45.3143 1.48577C44.78 0.95151 44.0554 0.651367 43.2998 0.651367V0.651367ZM44.2495 28.19C44.2495 28.4418 44.1494 28.6834 43.9713 28.8615C43.7932 29.0396 43.5517 29.1396 43.2998 29.1396H2.9415C2.68965 29.1396 2.44812 29.0396 2.27003 28.8615C2.09194 28.6834 1.9919 28.4418 1.9919 28.19V13.9459H44.2495V28.19ZM44.2495 12.0467H1.9919V8.24823H44.2495V12.0467ZM44.2495 6.34901H1.9919V3.50019C1.9919 3.24834 2.09194 3.0068 2.27003 2.82872C2.44812 2.65063 2.68965 2.55058 2.9415 2.55058H43.2998C43.5517 2.55058 43.7932 2.65063 43.9713 2.82872C44.1494 3.0068 44.2495 3.24834 44.2495 3.50019V6.34901Z" fill="#131313"/>
<path d="M6.7402 19.6435H15.7615C16.0133 19.6435 16.2549 19.5435 16.4329 19.3654C16.611 19.1873 16.7111 18.9458 16.7111 18.6939C16.7111 18.442 16.611 18.2005 16.4329 18.0224C16.2549 17.8443 16.0133 17.7443 15.7615 17.7443H6.7402C6.48834 17.7443 6.24681 17.8443 6.06872 18.0224C5.89064 18.2005 5.79059 18.442 5.79059 18.6939C5.79059 18.9458 5.89064 19.1873 6.06872 19.3654C6.24681 19.5435 6.48834 19.6435 6.7402 19.6435Z" fill="#131313"/>
<path d="M6.7402 25.3412H15.7615C16.0133 25.3412 16.2549 25.2412 16.4329 25.0631C16.611 24.885 16.7111 24.6434 16.7111 24.3916C16.7111 24.1397 16.611 23.8982 16.4329 23.7201C16.2549 23.542 16.0133 23.442 15.7615 23.442H6.7402C6.48834 23.442 6.24681 23.542 6.06872 23.7201C5.89064 23.8982 5.79059 24.1397 5.79059 24.3916C5.79059 24.6434 5.89064 24.885 6.06872 25.0631C6.24681 25.2412 6.48834 25.3412 6.7402 25.3412Z" fill="#131313"/>
</svg>
