<svg width="127" height="84" viewBox="0 0 127 84" fill="none" xmlns="http://www.w3.org/2000/svg">
<path d="M101.468 57.2945L101.096 57.1663V64.1076C101.774 63.8729 102.376 63.4602 102.839 62.9129C103.302 62.3655 103.61 61.7037 103.729 60.9966C103.889 60.2082 103.745 59.3884 103.325 58.7018C102.906 58.0151 102.243 57.5124 101.468 57.2945Z" fill="#006583" fill-opacity="0.5"/>
<path d="M96.6941 50.3427C96.5899 50.7295 96.5923 51.1372 96.7009 51.5228C96.8095 51.9083 97.0202 52.2574 97.3109 52.533C97.6937 52.8232 98.1004 53.0806 98.5265 53.3024V48.1243C98.0539 48.3017 97.636 48.5999 97.3145 48.9891C96.993 49.3784 96.7791 49.8451 96.6941 50.3427Z" fill="#006583" fill-opacity="0.5"/>
<path d="M99.9294 29.2648C85.0118 29.2648 73 46.9779 73 61.6442C73 75.0935 83.0678 83.1236 99.9294 83.1236C116.791 83.1236 126.859 75.0935 126.859 61.6442C126.859 46.9779 114.847 29.2648 99.9294 29.2648ZM106.253 61.4146C106.041 62.7261 105.433 63.9413 104.51 64.8972C103.587 65.8531 102.394 66.5038 101.091 66.762V68.3765C101.091 68.7166 100.956 69.0428 100.716 69.2833C100.475 69.5238 100.149 69.6589 99.8089 69.6589C99.4688 69.6589 99.1426 69.5238 98.9021 69.2833C98.6616 69.0428 98.5265 68.7166 98.5265 68.3765V66.8633C96.931 66.805 95.3893 66.2719 94.0985 65.3322C93.9517 65.2429 93.8243 65.1249 93.7239 64.9853C93.6236 64.8457 93.5523 64.6874 93.5143 64.5197C93.4764 64.3521 93.4726 64.1785 93.503 64.0093C93.5335 63.8401 93.5977 63.6788 93.6918 63.5349C93.7859 63.391 93.908 63.2675 94.0507 63.1717C94.1935 63.076 94.3541 63.0099 94.5229 62.9774C94.6917 62.945 94.8653 62.9468 95.0334 62.9827C95.2015 63.0187 95.3607 63.0881 95.5014 63.1868C96.3778 63.8482 97.4305 64.235 98.5265 64.2986V56.148C97.5311 55.7337 96.5911 55.197 95.7284 54.5502C95.0648 53.9872 94.5688 53.2525 94.2946 52.4266C94.0205 51.6006 93.9789 50.7151 94.1742 49.8671C94.3421 48.8879 94.7765 47.974 95.4299 47.2257C96.0832 46.4773 96.9301 45.9235 97.8776 45.625C98.0995 45.5583 98.3149 45.5058 98.5278 45.4609V44.0118C98.5278 43.6717 98.6629 43.3456 98.9034 43.1051C99.1439 42.8646 99.47 42.7295 99.8102 42.7295C100.15 42.7295 100.476 42.8646 100.717 43.1051C100.957 43.3456 101.093 43.6717 101.093 44.0118V45.3634C102.372 45.5375 103.577 46.0676 104.57 46.8933C104.808 47.1257 104.947 47.4416 104.957 47.7742C104.966 48.1069 104.846 48.4303 104.622 48.676C104.397 48.9217 104.086 49.0706 103.754 49.0911C103.422 49.1117 103.095 49.0023 102.842 48.786C102.329 48.3822 101.731 48.1021 101.093 47.9679V54.4271C101.504 54.5835 101.916 54.7336 102.318 54.8759C103.665 55.2896 104.811 56.1858 105.537 57.3925C106.263 58.5992 106.518 60.0315 106.253 61.4146Z" fill="#006583" fill-opacity="0.5"/>
<path d="M91.9403 28.1928C97.0804 26.2026 102.778 26.2026 107.918 28.1928L109.635 24.5086C110.022 23.6839 110.105 22.7493 109.87 21.8695C109.635 20.9896 109.097 20.2209 108.351 19.6987C107.604 19.1766 106.698 18.9346 105.791 19.0152C104.884 19.0959 104.034 19.494 103.392 20.1396C102.472 21.0561 101.227 21.5708 99.9293 21.5708C98.6313 21.5708 97.3862 21.0561 96.467 20.1396C95.8238 19.4969 94.9749 19.1012 94.0691 19.0219C93.1633 18.9427 92.2586 19.185 91.5136 19.7064C90.7687 20.2278 90.2312 20.9948 89.9955 21.873C89.7597 22.7511 89.8408 23.6843 90.2245 24.5086L91.9403 28.1928Z" fill="#006583" fill-opacity="0.5"/>
<path d="M67.7247 42.5579C67.065 42.5579 66.5303 43.0926 66.5303 43.7522C66.5303 44.5885 65.85 45.2688 65.0138 45.2688C64.1777 45.2688 63.4972 44.5885 63.4972 43.7522C63.4972 43.0924 62.9625 42.5579 62.3029 42.5579C61.6433 42.5579 61.1085 43.0926 61.1085 43.7522C61.1085 45.9056 62.8605 47.6575 65.0138 47.6575C67.167 47.6575 68.919 45.9054 68.919 43.7522C68.919 43.0923 68.3843 42.5579 67.7247 42.5579Z" fill="#131313"/>
<path d="M78.9359 42.7528L75.5742 41.676C75.1436 41.538 74.8043 41.1943 74.6666 40.7565C73.9581 38.5039 72.8889 36.3892 71.4888 34.4708C70.8506 33.5964 70.141 32.7614 69.3658 31.9665C69.8618 29.7908 70.1314 27.3285 70.0965 25.2013C70.0464 22.1581 69.4383 20.3732 68.2374 19.7442C67.5906 19.405 65.6222 18.3747 54.9679 23.2518C54.7156 23.3672 54.48 23.5094 54.2618 23.6722C53.5435 23.4792 52.8094 23.3007 52.0707 23.1404C51.9818 23.121 51.8901 23.1038 51.8005 23.0849C52.6638 21.1989 53.168 19.1505 53.2627 17.0359C53.2922 16.3768 52.782 15.8186 52.1228 15.7893C51.4655 15.7566 50.9056 16.2699 50.8762 16.929C50.7206 20.4059 49.2783 23.6774 46.8152 26.1406C45.3435 27.6123 43.6204 28.6813 41.7839 29.3545C38.599 28.9076 35.3549 28.9076 32.1701 29.3545C30.3334 28.6813 28.6104 27.6123 27.1388 26.1406C24.5109 23.5127 23.0636 20.0188 23.0636 16.3024C23.0636 12.5858 24.5109 9.09204 27.1388 6.46418C29.7666 3.83616 33.2607 2.38886 36.977 2.38886C40.6932 2.38886 44.1873 3.83616 46.8152 6.46418C47.8712 7.5202 48.7438 8.72529 49.4089 10.0456C49.7056 10.6349 50.4239 10.8721 51.013 10.5752C51.6022 10.2787 51.8393 9.56042 51.5426 8.97134C50.7631 7.42306 49.7409 6.01135 48.5045 4.77484C45.4254 1.69575 41.3315 0 36.9771 0C32.6227 0 28.5288 1.69575 25.4497 4.77484C22.3706 7.85409 20.6749 11.9478 20.6749 16.3022C20.6749 20.6566 22.3706 24.7505 25.4497 27.8296C26.3379 28.7178 27.3042 29.4816 28.3262 30.1215C28.3259 30.1215 28.3265 30.1215 28.3262 30.1215C27.5836 30.3145 26.8475 30.5311 26.1186 30.7747C25.493 30.9839 25.1554 31.6605 25.3646 32.2863C25.5736 32.9119 26.2506 33.2495 26.876 33.0405C33.3897 30.8629 40.5645 30.8629 47.0782 33.0405C47.2039 33.0825 47.3315 33.1023 47.457 33.1023C47.9566 33.1023 48.4224 32.7862 48.5896 32.2863C48.7988 31.6607 48.4612 30.9839 47.8356 30.7747C47.1068 30.5311 46.3697 30.3142 45.6271 30.1213C45.6268 30.1213 45.6274 30.1213 45.6271 30.1213C46.6493 29.4815 47.6163 28.7178 48.5045 27.8296C49.2903 27.0439 49.9839 26.1858 50.5861 25.2739C50.9153 25.3379 51.2422 25.4049 51.5642 25.4747C51.9932 25.5679 52.4202 25.6679 52.8434 25.7729C52.8301 25.8248 52.8164 25.8766 52.8054 25.9293C52.2229 28.6936 52.2607 31.1384 52.9177 33.1955C53.5083 35.0445 54.5741 36.5424 56.0851 37.648C57.8662 38.9508 60.0164 39.5136 61.9641 39.5136C63.43 39.5136 64.7814 39.1946 65.774 38.6325C66.8967 37.9966 67.8373 36.6567 68.5818 34.645C68.926 35.0467 69.2522 35.4582 69.5596 35.8794C70.8062 37.5872 71.7579 39.4694 72.3882 41.4734C72.7583 42.6504 73.6771 43.5766 74.8458 43.9512L78.2075 45.0281C79.0896 45.3107 79.6822 46.1226 79.6822 47.0487V52.623C79.6822 53.5491 79.0896 54.361 78.2075 54.6436L72.7913 56.3785C71.9248 56.6563 71.1914 57.2518 70.7264 58.0555C68.5985 61.733 65.253 64.7761 60.7822 67.1006C60.2658 67.3694 59.908 67.8501 59.8003 68.4198L58.0656 77.6051C58.0177 77.8582 57.796 78.0418 57.5384 78.0418H51.8981C51.6405 78.0418 51.4188 77.8581 51.3709 77.6051L50.4101 72.5288C50.2209 71.53 49.2842 70.8665 48.2759 71.0193C45.8464 71.3867 43.3429 71.5728 40.8354 71.5728C38.9699 71.5728 37.1283 71.4687 35.3614 71.2634C34.3844 71.151 33.4742 71.817 33.2916 72.7817L32.3786 77.6051C32.3307 77.8582 32.109 78.0418 31.8514 78.0418H26.2111C25.9535 78.0418 25.7319 77.8581 25.6833 77.6013L24.013 68.9258C23.9055 68.3669 23.5544 67.8916 23.0493 67.6218C15.4283 63.5534 11.4001 56.7563 11.4001 47.9658C11.4001 43.5243 12.3718 39.597 14.2881 36.2924C16.0764 33.2085 18.6882 30.6587 22.051 28.7135C22.622 28.3831 22.8171 27.6525 22.4869 27.0814C22.1567 26.5104 21.426 26.3156 20.8549 26.6455C14.3343 30.4176 10.4015 36.2369 9.3187 43.6281C9.20377 43.6176 9.08868 43.6075 8.97407 43.5957C8.9949 42.7982 8.85064 41.9935 8.53646 41.2126C7.84351 39.4901 6.4201 38.2468 4.90997 38.0453C3.71995 37.886 2.58747 38.3912 1.80155 39.4296C0.662015 40.9354 0.847796 42.1271 1.20413 42.8615C1.80571 44.1011 3.35207 44.9779 5.91822 45.5291C5.84769 45.6348 5.77011 45.7409 5.68515 45.8475C4.16893 47.7491 2.38261 48.1695 1.22272 48.2091C0.543718 48.232 0 48.7772 0 49.4567V49.4624C0 50.1326 0.52881 50.6792 1.19836 50.7098C1.28412 50.7139 1.37372 50.7159 1.46701 50.7159C2.93466 50.7159 5.29019 50.1746 7.55322 47.3369C7.91051 46.8891 8.20161 46.4165 8.42538 45.9283C8.65075 45.9538 8.86731 45.9756 9.07473 45.9948C9.07473 45.9943 9.07473 45.994 9.07489 45.9935C9.03418 46.6408 9.01157 47.2975 9.01157 47.9658C9.01157 52.9394 10.1973 57.3739 12.5355 61.1468C14.6914 64.6251 17.7782 67.4732 21.7131 69.6151L23.3369 78.0491C23.598 79.4289 24.8068 80.4305 26.2111 80.4305H31.8514C33.2557 80.4305 34.4645 79.4289 34.7256 78.0491L35.5512 73.6879C37.2657 73.8695 39.0408 73.9615 40.8352 73.9615C43.2974 73.9615 45.7566 73.79 48.1533 73.4514L49.0235 78.0494C49.2848 79.4293 50.4936 80.4306 51.8978 80.4306H57.5381C58.9424 80.4306 60.1512 79.4291 60.4124 78.0488L62.1015 69.1058C66.8731 66.5826 70.4698 63.2681 72.7937 59.2518C72.9612 58.9623 73.2191 58.7499 73.5199 58.6535L78.9359 56.9187C80.8108 56.3177 82.0706 54.5915 82.0706 52.6226V47.0484C82.0706 45.0797 80.8108 43.3535 78.9359 42.7528ZM67.5284 28.5577C67.0687 32.4891 65.8355 35.852 64.5964 36.5538C63.1881 37.3516 59.9365 37.5056 57.4953 35.7198C55.0511 33.9319 54.2376 30.7167 55.1425 26.4218C55.2333 25.9904 55.5398 25.6171 55.9622 25.4238C61.9418 22.6866 65.3893 21.7913 66.67 21.7913C66.8633 21.7913 67.0073 21.8117 67.1031 21.8492C67.4878 22.2592 67.9924 24.5901 67.5284 28.5577ZM3.35351 41.8185C3.22993 41.5636 3.52166 41.1156 3.70664 40.871C3.99982 40.4837 4.26991 40.4045 4.47397 40.4045C4.51709 40.4045 4.55732 40.4081 4.59419 40.413C5.14336 40.4863 5.91277 41.0906 6.3204 42.1038C6.41641 42.3423 6.54112 42.7375 6.5703 43.2302C4.91686 42.8877 3.63226 42.3938 3.35351 41.8185Z" fill="#131313"/>
<path d="M38.1368 14.9334V10.6593C39.6107 10.7646 40.1582 11.4383 40.6635 11.4383C41.2952 11.4383 41.59 10.6383 41.59 10.2382C41.59 9.20641 39.5685 8.76432 38.1368 8.72216V8.15344C38.1368 7.90081 37.8208 7.66919 37.505 7.66919C37.147 7.66919 36.8943 7.90081 36.8943 8.15344V8.764C34.894 8.97462 32.8937 10.0274 32.8937 12.6805C32.8937 15.3756 34.9993 16.1337 36.8943 16.8074V21.7555C34.7465 21.587 34.1781 20.1131 33.4833 20.1131C32.9569 20.1131 32.5148 20.808 32.5148 21.3134C32.5148 22.3451 34.2835 23.7558 36.8943 23.798V24.4507C36.8943 24.7033 37.1471 24.9349 37.505 24.9349C37.821 24.9349 38.1368 24.7033 38.1368 24.4507V23.7348C40.4109 23.4189 41.9689 21.9871 41.9689 19.3973C41.9689 16.5338 39.9686 15.6071 38.1368 14.9334ZM37.0206 14.5335C35.9047 14.1124 34.9993 13.6703 34.9993 12.4702C34.9993 11.3752 35.8415 10.8488 37.0206 10.7015V14.5335ZM38.0103 21.7134V17.2706C39.0419 17.7127 39.8631 18.3023 39.8631 19.6287C39.8631 20.8292 39.1473 21.5029 38.0103 21.7134Z" fill="#131313"/>
</svg>
