<svg width="105" height="62" viewBox="0 0 105 62" fill="none" xmlns="http://www.w3.org/2000/svg">
<path d="M100.564 2.4093H54.0242C53.4167 2.40936 52.8157 2.51853 52.2584 2.73006C51.7011 2.94159 51.1994 3.25096 50.7844 3.63901C50.3694 4.02705 50.0499 4.4855 49.8458 4.98594C49.6417 5.48638 49.5573 6.01815 49.5978 6.5483L53.6308 58.2857C53.7089 59.2668 54.2088 60.1856 55.03 60.8575C55.8512 61.5294 56.9328 61.9045 58.0573 61.9073H96.5306C97.6551 61.9045 98.7367 61.5294 99.5579 60.8575C100.379 60.1856 100.879 59.2668 100.957 58.2857L104.99 6.5483C105.031 6.01815 104.946 5.48638 104.742 4.98594C104.538 4.4855 104.219 4.02705 103.804 3.63901C103.389 3.25096 102.887 2.94159 102.33 2.73006C101.772 2.51853 101.171 2.40936 100.564 2.4093ZM69.0621 54.1467H63.5901C63.1978 54.1467 62.8216 54.0104 62.5443 53.7679C62.2669 53.5253 62.1111 53.1963 62.1111 52.8533C62.1111 52.5102 62.2669 52.1812 62.5443 51.9387C62.8216 51.6961 63.1978 51.5598 63.5901 51.5598H69.0621C69.4544 51.5598 69.8306 51.6961 70.1079 51.9387C70.3853 52.1812 70.5411 52.5102 70.5411 52.8533C70.5411 53.1963 70.3853 53.5253 70.1079 53.7679C69.8306 54.0104 69.4544 54.1467 69.0621 54.1467ZM69.0621 46.3861H63.5901C63.1978 46.3861 62.8216 46.2498 62.5443 46.0073C62.2669 45.7647 62.1111 45.4357 62.1111 45.0927C62.1111 44.7496 62.2669 44.4206 62.5443 44.1781C62.8216 43.9355 63.1978 43.7992 63.5901 43.7992H69.0621C69.4544 43.7992 69.8306 43.9355 70.1079 44.1781C70.3853 44.4206 70.5411 44.7496 70.5411 45.0927C70.5411 45.4357 70.3853 45.7647 70.1079 46.0073C69.8306 46.2498 69.4544 46.3861 69.0621 46.3861ZM69.0621 38.6255H63.5901C63.1978 38.6255 62.8216 38.4892 62.5443 38.2466C62.2669 38.0041 62.1111 37.6751 62.1111 37.3321C62.1111 36.989 62.2669 36.66 62.5443 36.4174C62.8216 36.1749 63.1978 36.0386 63.5901 36.0386H69.0621C69.4544 36.0386 69.8306 36.1749 70.1079 36.4174C70.3853 36.66 70.5411 36.989 70.5411 37.3321C70.5411 37.6751 70.3853 38.0041 70.1079 38.2466C69.8306 38.4892 69.4544 38.6255 69.0621 38.6255ZM80.0359 54.1467H74.552C74.1597 54.1467 73.7836 54.0104 73.5062 53.7679C73.2289 53.5253 73.073 53.1963 73.073 52.8533C73.073 52.5102 73.2289 52.1812 73.5062 51.9387C73.7836 51.6961 74.1597 51.5598 74.552 51.5598H80.0359C80.4281 51.5598 80.8043 51.6961 81.0817 51.9387C81.359 52.1812 81.5148 52.5102 81.5148 52.8533C81.5148 53.1963 81.359 53.5253 81.0817 53.7679C80.8043 54.0104 80.4281 54.1467 80.0359 54.1467ZM80.0359 46.3861H74.552C74.1597 46.3861 73.7836 46.2498 73.5062 46.0073C73.2289 45.7647 73.073 45.4357 73.073 45.0927C73.073 44.7496 73.2289 44.4206 73.5062 44.1781C73.7836 43.9355 74.1597 43.7992 74.552 43.7992H80.0359C80.4281 43.7992 80.8043 43.9355 81.0817 44.1781C81.359 44.4206 81.5148 44.7496 81.5148 45.0927C81.5148 45.4357 81.359 45.7647 81.0817 46.0073C80.8043 46.2498 80.4281 46.3861 80.0359 46.3861ZM80.0359 38.6255H74.552C74.1597 38.6255 73.7836 38.4892 73.5062 38.2466C73.2289 38.0041 73.073 37.6751 73.073 37.3321C73.073 36.989 73.2289 36.66 73.5062 36.4174C73.7836 36.1749 74.1597 36.0386 74.552 36.0386H80.0359C80.4281 36.0386 80.8043 36.1749 81.0817 36.4174C81.359 36.66 81.5148 36.989 81.5148 37.3321C81.5148 37.6751 81.359 38.0041 81.0817 38.2466C80.8043 38.4892 80.4281 38.6255 80.0359 38.6255ZM91.0038 54.1467H85.5198C85.1276 54.1467 84.7514 54.0104 84.4741 53.7679C84.1967 53.5253 84.0409 53.1963 84.0409 52.8533C84.0409 52.5102 84.1967 52.1812 84.4741 51.9387C84.7514 51.6961 85.1276 51.5598 85.5198 51.5598H91.0038C91.396 51.5598 91.7722 51.6961 92.0495 51.9387C92.3269 52.1812 92.4827 52.5102 92.4827 52.8533C92.4827 53.1963 92.3269 53.5253 92.0495 53.7679C91.7722 54.0104 91.396 54.1467 91.0038 54.1467ZM91.0038 46.3861H85.5198C85.1276 46.3861 84.7514 46.2498 84.4741 46.0073C84.1967 45.7647 84.0409 45.4357 84.0409 45.0927C84.0409 44.7496 84.1967 44.4206 84.4741 44.1781C84.7514 43.9355 85.1276 43.7992 85.5198 43.7992H91.0038C91.396 43.7992 91.7722 43.9355 92.0495 44.1781C92.3269 44.4206 92.4827 44.7496 92.4827 45.0927C92.4827 45.4357 92.3269 45.7647 92.0495 46.0073C91.7722 46.2498 91.396 46.3861 91.0038 46.3861ZM91.0038 38.6255H85.5198C85.1276 38.6255 84.7514 38.4892 84.4741 38.2466C84.1967 38.0041 84.0409 37.6751 84.0409 37.3321C84.0409 36.989 84.1967 36.66 84.4741 36.4174C84.7514 36.1749 85.1276 36.0386 85.5198 36.0386H91.0038C91.396 36.0386 91.7722 36.1749 92.0495 36.4174C92.3269 36.66 92.4827 36.989 92.4827 37.3321C92.4827 37.6751 92.3269 38.0041 92.0495 38.2466C91.7722 38.4892 91.396 38.6255 91.0038 38.6255ZM94.4822 27.2433C94.4042 28.2232 93.9054 29.1412 93.0857 29.8129C92.2661 30.4846 91.1864 30.8604 90.0631 30.8649H64.5321C63.4075 30.8623 62.3257 30.4874 61.5045 29.8154C60.6832 29.1435 60.1834 28.2245 60.1057 27.2433L59.097 14.3089C59.0565 13.7788 59.1409 13.247 59.345 12.7466C59.5492 12.2461 59.8686 11.7877 60.2836 11.3996C60.6986 11.0116 61.2003 10.7022 61.7576 10.4907C62.3149 10.2791 62.916 10.17 63.5235 10.1699H91.0644C91.6719 10.17 92.273 10.2791 92.8303 10.4907C93.3876 10.7022 93.8893 11.0116 94.3043 11.3996C94.7193 11.7877 95.0387 12.2461 95.2428 12.7466C95.447 13.247 95.5314 13.7788 95.4909 14.3089L94.4822 27.2433Z" fill="#006583" fill-opacity="0.5"/>
<path d="M67.7097 0.708435H4.62451C3.44348 0.708435 2.31083 1.11144 1.47571 1.82879C0.640602 2.54615 0.17144 3.51908 0.17144 4.53358C0.17144 18.2582 0.0230045 17.284 0.17144 17.284V37.6848C0.17144 38.6993 0.640602 39.6722 1.47571 40.3896C2.31083 41.1069 3.44348 41.5099 4.62451 41.5099H67.7097C68.8907 41.5099 70.0234 41.1069 70.8585 40.3896C71.6936 39.6722 72.1628 38.6993 72.1628 37.6848C72.1628 37.5573 72.0143 4.53358 72.1628 4.53358C72.1628 3.51908 71.6936 2.54615 70.8585 1.82879C70.0234 1.11144 68.8907 0.708435 67.7097 0.708435V0.708435ZM69.1941 37.6848C69.1941 38.023 69.0377 38.3473 68.7593 38.5864C68.4809 38.8255 68.1034 38.9598 67.7097 38.9598H4.62451C4.23084 38.9598 3.85328 38.8255 3.57491 38.5864C3.29654 38.3473 3.14015 38.023 3.14015 37.6848V18.5591H69.1941V37.6848ZM69.1941 16.009H3.14015V10.9088H69.1941V16.009ZM69.1941 8.35872H3.14015V4.53358C3.14015 4.19541 3.29654 3.8711 3.57491 3.63198C3.85328 3.39286 4.23084 3.25853 4.62451 3.25853H67.7097C68.1034 3.25853 68.4809 3.39286 68.7593 3.63198C69.0377 3.8711 69.1941 4.19541 69.1941 4.53358V8.35872Z" fill="white"/>
<path d="M10.5622 26.2093H24.6636C25.0573 26.2093 25.4348 26.075 25.7132 25.8359C25.9916 25.5968 26.148 25.2724 26.148 24.9343C26.148 24.5961 25.9916 24.2718 25.7132 24.0327C25.4348 23.7936 25.0573 23.6592 24.6636 23.6592H10.5622C10.1686 23.6592 9.79101 23.7936 9.51264 24.0327C9.23427 24.2718 9.07788 24.5961 9.07788 24.9343C9.07788 25.2724 9.23427 25.5968 9.51264 25.8359C9.79101 26.075 10.1686 26.2093 10.5622 26.2093Z" fill="white"/>
<path d="M10.5622 33.8597H24.6636C25.0573 33.8597 25.4348 33.7254 25.7132 33.4863C25.9916 33.2472 26.148 32.9228 26.148 32.5847C26.148 32.2465 25.9916 31.9222 25.7132 31.6831C25.4348 31.444 25.0573 31.3096 24.6636 31.3096H10.5622C10.1686 31.3096 9.79101 31.444 9.51264 31.6831C9.23427 31.9222 9.07788 32.2465 9.07788 32.5847C9.07788 32.9228 9.23427 33.2472 9.51264 33.4863C9.79101 33.7254 10.1686 33.8597 10.5622 33.8597Z" fill="white"/>
</svg>
