<svg width="56" height="56" viewBox="0 0 56 56" fill="none" xmlns="http://www.w3.org/2000/svg">
<path d="M0 17C0 7.61116 7.61116 0 17 0H50C53.3137 0 56 2.68629 56 6V50C56 53.3137 53.3137 56 50 56H17C7.61116 56 0 48.3888 0 39V17Z" fill="#F7F7F7"/>
<path d="M0.5 17C0.5 7.8873 7.8873 0.5 17 0.5H50C53.0376 0.5 55.5 2.96243 55.5 6V50C55.5 53.0376 53.0376 55.5 50 55.5H17C7.8873 55.5 0.5 48.1127 0.5 39V17Z" stroke="#006583" stroke-opacity="0.5"/>
<path fill-rule="evenodd" clip-rule="evenodd" d="M37.6217 23.1356H37.7433C38.7 23.1357 39.6472 23.3247 40.5308 23.6915C41.4143 24.0584 42.2168 24.596 42.8923 25.2735C44.2584 26.6428 45.0256 28.498 45.0256 30.4322C45.0256 32.3664 44.2584 34.2216 42.8923 35.5909C42.2168 36.2684 41.4143 36.806 40.5308 37.1729C39.6472 37.5397 38.7 37.7286 37.7433 37.7288H32.891V35.2966H37.7433C38.9958 35.2406 40.1784 34.7036 41.0449 33.7975C41.9114 32.8914 42.395 31.6859 42.395 30.4322C42.395 29.1785 41.9114 27.973 41.0449 27.0669C40.1784 26.1608 38.9958 25.6238 37.7433 25.5678H35.5203L35.2211 23.4834C35.0386 22.1775 34.4348 20.9668 33.5015 20.0353C32.5683 19.1038 31.3565 18.5023 30.0502 18.3223C28.7432 18.1437 27.4137 18.3989 26.2657 19.0487C25.1177 19.6985 24.2146 20.707 23.6949 21.9195L22.885 23.7728L20.9173 23.3131C20.4675 23.2016 20.0065 23.142 19.5431 23.1356C17.933 23.1356 16.3885 23.7753 15.2527 24.916C14.4062 25.7671 13.8303 26.8495 13.5972 28.0271C13.3642 29.2046 13.4845 30.4248 13.943 31.5342C14.4016 32.6436 15.1778 33.5927 16.1742 34.2621C17.1706 34.9315 18.3427 35.2914 19.5431 35.2966H25.609V37.7288H19.5431C18.3384 37.7396 17.1452 37.4936 16.0431 37.0071C14.9409 36.5206 13.9551 35.8048 13.1513 34.9074C11.9359 33.554 11.1858 31.847 11.0107 30.0364C10.8357 28.2258 11.2449 26.4067 12.1784 24.8454C12.7967 23.8111 13.6278 22.9199 14.6165 22.231C15.6052 21.5421 16.729 21.0711 17.9135 20.8493C19.0956 20.6304 20.3141 20.662 21.484 20.949C22.2212 19.2611 23.4879 17.8592 25.0927 16.9552C26.6975 16.0512 28.553 15.6944 30.3786 15.9387C32.2049 16.1858 33.9006 17.0225 35.208 18.3215C36.5154 19.6205 37.3629 21.3109 37.6217 23.1356ZM33.5769 32.5069L30.381 29.3134V42.5348H27.9634V29.4009L24.855 32.5093L23.1355 30.7873L28.355 25.5678H30.077L35.2965 30.7873L33.5769 32.5069Z" fill="#006583"/>
</svg>
